{"asset":{"version":"2.0","generator":"THREE.GLTFExporter"},"scenes":[{"nodes":[0],"name":"AuxScene"}],"scene":0,"nodes":[{"mesh":0}],"bufferViews":[{"buffer":0,"byteOffset":0,"byteLength":11484,"target":34962,"byteStride":12},{"buffer":0,"byteOffset":11484,"byteLength":11484,"target":34962,"byteStride":12}],"buffers":[{"byteLength":22968,"uri":"data:application/octet-stream;base64,"}],"accessors":[{"bufferView":0,"componentType":5126,"count":957,"max":[31.119064331054688,13.449999809265137,17.435306549072266],"min":[-34.98093795776367,-0.550000011920929,-6.7646942138671875],"type":"VEC3"},{"bufferView":1,"componentType":5126,"count":957,"max":[0.9532126188278198,1,0.8320503234863281],"min":[-0.10677836090326309,0.30215612053871155,-0.45481276512145996],"type":"VEC3"}],"materials":[{"pbrMetallicRoughness":{"baseColorFactor":[0.5019607843137255,0.5019607843137255,0.5019607843137255,1],"metallicFactor":0,"roughnessFactor":1}}],"meshes":[{"primitives":[{"mode":4,"attributes":{"POSITION":0,"NORMAL":1},"material":0}]}]}