<?xml version="1.0" encoding="UTF-8"?>
<svg fill="#FFFFFF" width="100pt" height="100pt" version="1.1" viewBox="0 0 100 100" xmlns="http://www.w3.org/2000/svg">
 <g>
  <path d="m85.371 49.41v6.6367c3.8281 2.0859 5.8906 4.3477 5.8906 6.332 0 4.5625-10.879 10.621-29.262 12.527v5.9883c18.676-1.9102 35.262-8.2617 35.262-18.516 0-5.4492-4.6914-9.8008-11.891-12.969z"/>
  <path d="m38.652 86.727l10.969-6.9062c0.19922-0.125 0.32422-0.34766 0.32422-0.58594v-1.4453c0-0.23828-0.12109-0.45703-0.32422-0.58594l-10.969-6.9062c-0.19922-0.125-0.44141-0.12891-0.65234-0.03125-0.015625 0.007813-0.03125 0.003906-0.046875 0.011719l-1.3086 0.72266c-0.21875 0.12109-0.35547 0.35156-0.35547 0.60547v3.1094c-17.348-2.0898-27.551-7.9141-27.551-12.332 0-1.8711 1.8359-3.9961 5.2656-5.9844v-6.6992c-6.8398 3.1406-11.266 7.3906-11.266 12.684 0 9.9414 15.586 16.215 33.547 18.328v4.707c0 0.25 0.13672 0.48438 0.35547 0.60547l1.3086 0.72266c0.015625 0.007812 0.03125 0.003906 0.046875 0.011718 0.09375 0.042969 0.1875 0.074219 0.28516 0.074219 0.13281 0 0.26172-0.035156 0.37109-0.10547z"/>
  <path d="m20.102 62.383c1.1484 1.0977 2.6953 1.7812 4.3984 1.7812h50.996c1.7031 0 3.2539-0.67969 4.3984-1.7812 1.2148-1.1641 1.9766-2.793 1.9766-4.5938v-28.688c0-3.5039-2.8711-6.375-6.375-6.375h-7.6523c-1.0508 0-2.1836-0.81641-2.5156-1.8125l-1.9805-5.9336c-0.33203-1-1.4648-1.8125-2.5156-1.8125h-21.672c-1.0508 0-2.1836 0.81641-2.5156 1.8125l-1.9805 5.9336c-0.33203 1-1.4648 1.8125-2.5156 1.8125h-7.6523c-3.5039 0-6.375 2.8711-6.375 6.375v28.684c0.007812 1.8047 0.76953 3.4336 1.9805 4.5977zm53.164-33.996c1.6289 0 2.9453 1.3203 2.9453 2.9414 0 1.6289-1.3203 2.9453-2.9453 2.9453-1.6211 0-2.9453-1.3203-2.9453-2.9453s1.3242-2.9414 2.9453-2.9414zm-23.266-1.3203c9.0586 0 16.402 7.3438 16.402 16.402s-7.3438 16.398-16.402 16.398-16.402-7.3438-16.402-16.402 7.3438-16.398 16.402-16.398z"/>
  <path d="m58.117 43.469c0 4.4805-3.6328 8.1172-8.1172 8.1172s-8.1172-3.6367-8.1172-8.1172c0-4.4844 3.6328-8.1172 8.1172-8.1172s8.1172 3.6328 8.1172 8.1172"/>
 </g>
</svg>
