<svg xmlns="http://www.w3.org/2000/svg" xmlns:xlink="http://www.w3.org/1999/xlink" width="100" height="100" viewBox="0 0 100 100"><g><g transform="translate(50 50) scale(0.69 0.69) rotate(0) translate(-50 -50)" style="fill:#ffffff"><svg fill="#ffffff" xmlns:x="http://ns.adobe.com/Extensibility/1.0/" xmlns:i="http://ns.adobe.com/AdobeIllustrator/10.0/" xmlns:graph="http://ns.adobe.com/Graphs/1.0/" xmlns="http://www.w3.org/2000/svg" xmlns:xlink="http://www.w3.org/1999/xlink" version="1.1" x="0px" y="0px" viewBox="0 0 100 100" style="enable-background:new 0 0 100 100;" xml:space="preserve"><g><g i:extraneous="self"><path d="M87,50.4h7.6c2.2,0,3.6-2.4,2.4-4.3L84.3,25.6c-1.1-1.8-3.7-1.8-4.8,0L66.7,46c-1.2,1.9,0.2,4.3,2.4,4.3h7.6    c0,0.1,0,0.2,0,0.2c-0.3,17.1-14.5,31.2-31.6,31.3c-18.5,0.2-33.4-15.4-32.1-34.1c1-15.4,13.3-28.1,28.7-29.6    c8.1-0.8,15.6,1.4,21.6,5.7c1.4,1,3.3,0.6,4.2-0.9l2.3-3.9c0.8-1.3,0.4-3-0.8-3.9C62,10.5,53.7,7.7,44.8,7.7    c-24.4,0-44,20.7-42.2,45.5c1.5,20.7,18.2,37.4,38.9,38.9C66.2,94,86.8,74.6,87,50.4z"></path></g></g></svg></g></g></svg>